<svg width="428" height="65" viewBox="0 0 428 65" fill="none" xmlns="http://www.w3.org/2000/svg">
<path d="M18.71 64H0.85V0.349998H36.095C51.2 0.349998 60.7 8.99499 60.7 24.1C60.7 39.205 51.2 47.945 36.095 47.945H18.71V64ZM34.1 16.405H18.71V31.89H34.1C40.37 31.89 42.935 30.655 42.935 24.1C42.935 17.64 40.37 16.405 34.1 16.405ZM81.3526 64H63.4926V16.12H80.2126V28.66H81.1626C82.4926 20.775 87.4326 15.17 96.9326 15.17C107.478 15.17 111.658 22.105 111.658 31.7V41.2H93.7976V35.595C93.7976 31.605 92.2776 30.18 87.6226 30.18C82.7776 30.18 81.3526 31.605 81.3526 35.405V64ZM140.951 64.95C124.326 64.95 113.021 55.545 113.021 40.06C113.021 24.48 124.326 15.17 140.951 15.17C157.576 15.17 168.881 24.48 168.881 40.06C168.881 55.545 157.576 64.95 140.951 64.95ZM140.951 49.18C149.026 49.18 151.211 46.995 151.211 40.06C151.211 33.125 149.026 30.845 140.951 30.845C132.876 30.845 130.691 33.125 130.691 40.06C130.691 46.995 132.876 49.18 140.951 49.18ZM194.116 64H176.256V30.75H169.796V16.12H176.636C178.536 7.095 187.371 0.349998 203.046 0.349998H206.846V13.08H200.196C195.256 13.08 192.881 13.555 192.976 16.12H206.846V30.75H194.116V64ZM227.532 64H209.672V0.349998H228.672L246.342 24.195L255.652 38.825H256.887L256.032 24.955V0.349998H273.892V64H254.892L236.082 39.49L228.007 26.95H226.772L227.532 39.11V64ZM296.483 64H278.623V0.349998H296.483V64ZM340.138 64H322.278V16.405H299.763V0.349998H362.558V16.405H340.138V64ZM404.821 64H386.961V16.405H364.446V0.349998H427.241V16.405H404.821V64Z" fill="white"/>
</svg>
